<svg width="506" height="506" viewBox="0 0 506 506" fill="none" xmlns="http://www.w3.org/2000/svg">
<rect width="506" height="506" fill="white"/>
<circle cx="253" cy="253" r="250" fill="#61A9FD" stroke="#555555" stroke-width="5"/>
<line x1="488.115" y1="167.131" x2="20.8827" y2="345.159" stroke="#555555" stroke-width="5"/>
<line x1="484.544" y1="349.595" x2="20.804" y2="162.66" stroke="#555555" stroke-width="5"/>
<line x1="431.22" y1="427.888" x2="74.2495" y2="77.7849" stroke="#555555" stroke-width="5"/>
<line x1="350.762" y1="485.413" x2="160.688" y2="22.9504" stroke="#555555" stroke-width="5"/>
<line x1="155.709" y1="483.28" x2="355.657" y2="25.0003" stroke="#555555" stroke-width="5"/>
<line x1="502.987" y1="256.563" x2="2.99164" y2="254.437" stroke="#555555" stroke-width="5"/>
<line x1="255.5" y1="3" x2="255.5" y2="503" stroke="#555555" stroke-width="5"/>
<line x1="436.936" y1="83.8161" x2="73.7181" y2="427.434" stroke="#555555" stroke-width="5"/>
<circle cx="253.5" cy="253.5" r="62" fill="white" stroke="#61A9FD"/>
<g filter="url(#filter0_i)">
<circle cx="254" cy="254" r="55" fill="white"/>
</g>
<circle cx="254" cy="254" r="55" stroke="#61A9FD" stroke-width="5"/>
<path d="M295.514 28.68C298.634 28.68 301.127 29.94 302.994 32.46C304.861 34.9667 305.794 38.68 305.794 43.6C305.794 48.5067 304.867 52.2067 303.014 54.7C301.161 57.1933 298.647 58.44 295.474 58.44C292.314 58.44 289.807 57.2 287.954 54.72C286.101 52.2267 285.174 48.54 285.174 43.66C285.174 38.7133 286.107 34.98 287.974 32.46C289.854 29.94 292.367 28.68 295.514 28.68ZM295.514 55.24C297.581 55.24 299.141 54.3333 300.194 52.52C301.261 50.7067 301.794 47.74 301.794 43.62C301.794 39.4333 301.254 36.42 300.174 34.58C299.094 32.7267 297.534 31.8 295.494 31.8C293.454 31.8 291.881 32.7333 290.774 34.6C289.681 36.4533 289.134 39.46 289.134 43.62C289.134 47.7133 289.681 50.6733 290.774 52.5C291.867 54.3267 293.447 55.24 295.514 55.24Z" fill="white"/>
<path d="M376.795 97V73.98H371.215V71.56C372.935 71.56 374.275 71.4333 375.235 71.18C376.209 70.9267 376.895 70.54 377.295 70.02C377.709 69.5 377.935 68.8533 377.975 68.08H380.615V97H376.795Z" fill="white"/>
<path d="M427.566 154V150.56C427.566 149.08 427.839 147.8 428.386 146.72C428.946 145.64 429.679 144.7 430.586 143.9C431.506 143.087 432.506 142.36 433.586 141.72C434.679 141.08 435.766 140.467 436.846 139.88C437.939 139.28 438.939 138.66 439.846 138.02C440.766 137.367 441.499 136.633 442.046 135.82C442.593 134.993 442.866 134.02 442.866 132.9C442.866 131.433 442.346 130.24 441.306 129.32C440.279 128.4 438.886 127.94 437.126 127.94C435.233 127.94 433.713 128.473 432.566 129.54C431.419 130.607 430.773 132.027 430.626 133.8H426.946C426.973 132.133 427.379 130.613 428.166 129.24C428.953 127.853 430.106 126.747 431.626 125.92C433.146 125.093 435.026 124.68 437.266 124.68C439.199 124.68 440.879 125.027 442.306 125.72C443.733 126.4 444.833 127.36 445.606 128.6C446.393 129.827 446.786 131.26 446.786 132.9C446.786 134.393 446.513 135.673 445.966 136.74C445.419 137.807 444.693 138.733 443.786 139.52C442.893 140.307 441.906 141.007 440.826 141.62C439.759 142.22 438.686 142.8 437.606 143.36C436.539 143.92 435.559 144.513 434.666 145.14C433.773 145.767 433.053 146.48 432.506 147.28C431.959 148.08 431.686 149.033 431.686 150.14V150.72H446.946V154H427.566Z" fill="white"/>
<path d="M448.202 216.5C448.202 214.633 448.656 213.047 449.562 211.74C450.469 210.42 451.676 209.413 453.182 208.72C454.702 208.027 456.376 207.68 458.202 207.68C460.202 207.68 461.969 207.973 463.502 208.56C465.036 209.133 466.236 209.973 467.102 211.08C467.969 212.187 468.402 213.54 468.402 215.14C468.402 216.58 467.949 217.88 467.042 219.04C466.136 220.187 464.749 221.08 462.882 221.72C464.789 222.24 466.316 223.12 467.462 224.36C468.609 225.587 469.182 227.14 469.182 229.02C469.182 230.78 468.696 232.293 467.722 233.56C466.762 234.827 465.442 235.793 463.762 236.46C462.082 237.127 460.176 237.453 458.042 237.44C456.056 237.427 454.302 237.06 452.782 236.34C451.276 235.62 450.089 234.613 449.222 233.32C448.356 232.013 447.889 230.467 447.822 228.68H451.522C451.802 230.48 452.536 231.86 453.722 232.82C454.909 233.78 456.396 234.26 458.182 234.26C460.316 234.26 462.016 233.773 463.282 232.8C464.549 231.827 465.182 230.553 465.182 228.98C465.182 227.82 464.856 226.84 464.202 226.04C463.562 225.24 462.689 224.633 461.582 224.22C460.489 223.793 459.262 223.573 457.902 223.56L455.302 223.5V220.36L457.782 220.3C459.049 220.273 460.182 220.033 461.182 219.58C462.182 219.113 462.969 218.507 463.542 217.76C464.129 217 464.422 216.167 464.422 215.26C464.422 214.06 463.876 213.013 462.782 212.12C461.702 211.213 460.169 210.76 458.182 210.76C457.142 210.76 456.149 210.96 455.202 211.36C454.256 211.76 453.476 212.387 452.862 213.24C452.249 214.08 451.922 215.167 451.882 216.5H448.202Z" fill="white"/>
<path d="M463.262 287.08H467.022V305.36H471.822V308.62H467.022V316H463.402V308.62H449.782V305.24L463.262 287.08ZM453.322 305.36H463.322V291.94L453.322 305.36Z" fill="white"/>
<path d="M424.368 359.08H441.628L441.528 362.28H427.528L426.788 371.62C427.748 370.727 428.794 370.093 429.928 369.72C431.074 369.333 432.314 369.14 433.648 369.14C435.381 369.14 436.988 369.5 438.468 370.22C439.948 370.927 441.134 371.98 442.028 373.38C442.921 374.767 443.368 376.487 443.368 378.54C443.368 380.54 442.934 382.287 442.068 383.78C441.201 385.26 439.981 386.407 438.408 387.22C436.834 388.033 434.988 388.44 432.868 388.44C431.081 388.44 429.428 388.127 427.908 387.5C426.388 386.873 425.081 386 423.988 384.88C422.908 383.76 422.114 382.473 421.608 381.02L424.808 379.68C425.514 381.32 426.514 382.673 427.808 383.74C429.101 384.793 430.701 385.32 432.608 385.32C434.661 385.32 436.308 384.727 437.548 383.54C438.801 382.34 439.428 380.713 439.428 378.66C439.428 377.38 439.134 376.26 438.548 375.3C437.961 374.34 437.168 373.6 436.168 373.08C435.181 372.547 434.088 372.28 432.888 372.28C431.714 372.28 430.641 372.453 429.668 372.8C428.694 373.133 427.661 373.907 426.568 375.12C426.448 375.173 426.321 375.167 426.188 375.1L423.068 374.12L424.368 359.08Z" fill="white"/>
<path d="M375.799 414.68C377.399 414.68 378.872 414.98 380.219 415.58C381.579 416.167 382.705 417.027 383.599 418.16C384.492 419.28 385.045 420.633 385.259 422.22H381.779C381.392 420.847 380.685 419.76 379.659 418.96C378.645 418.16 377.379 417.76 375.859 417.76C373.299 417.76 371.379 418.84 370.099 421C368.832 423.147 368.319 426.247 368.559 430.3C369.105 428.833 370.052 427.653 371.399 426.76C372.759 425.853 374.292 425.4 375.999 425.4C377.892 425.4 379.552 425.773 380.979 426.52C382.419 427.253 383.539 428.307 384.339 429.68C385.139 431.04 385.539 432.667 385.539 434.56C385.539 436.493 385.125 438.207 384.299 439.7C383.485 441.18 382.325 442.34 380.819 443.18C379.312 444.02 377.532 444.44 375.479 444.44C373.239 444.44 371.292 443.86 369.639 442.7C367.999 441.54 366.725 439.887 365.819 437.74C364.925 435.58 364.479 432.993 364.479 429.98C364.479 426.887 364.912 424.193 365.779 421.9C366.659 419.607 367.939 417.833 369.619 416.58C371.299 415.313 373.359 414.68 375.799 414.68ZM375.399 428.4C374.345 428.4 373.332 428.653 372.359 429.16C371.399 429.653 370.612 430.307 369.999 431.12C369.399 431.933 369.099 432.833 369.099 433.82C369.085 435.287 369.339 436.593 369.859 437.74C370.392 438.873 371.132 439.767 372.079 440.42C373.039 441.06 374.159 441.38 375.439 441.38C376.625 441.38 377.679 441.1 378.599 440.54C379.519 439.98 380.239 439.2 380.759 438.2C381.292 437.2 381.559 436.047 381.559 434.74C381.559 432.767 381.025 431.22 379.959 430.1C378.892 428.967 377.372 428.4 375.399 428.4Z" fill="white"/>
<path d="M285.348 453.08H305.648V456.28C304.622 457.693 303.602 459.287 302.588 461.06C301.588 462.833 300.635 464.693 299.728 466.64C298.822 468.573 298.008 470.487 297.288 472.38C296.568 474.273 295.968 476.047 295.488 477.7C295.022 479.353 294.722 480.787 294.588 482H290.568C290.782 480.68 291.162 479.047 291.708 477.1C292.268 475.153 293.002 473.027 293.908 470.72C294.815 468.4 295.902 466.007 297.168 463.54C298.448 461.073 299.922 458.653 301.588 456.28H285.348V453.08Z" fill="white"/>
<path d="M209.991 452.68C211.844 452.68 213.504 452.987 214.971 453.6C216.437 454.213 217.597 455.107 218.451 456.28C219.304 457.453 219.731 458.88 219.731 460.56C219.731 462.147 219.304 463.473 218.451 464.54C217.611 465.593 216.524 466.4 215.191 466.96C216.164 467.147 217.097 467.6 217.991 468.32C218.884 469.04 219.611 469.913 220.171 470.94C220.744 471.967 221.031 473.04 221.031 474.16C221.031 475.827 220.571 477.28 219.651 478.52C218.744 479.76 217.464 480.727 215.811 481.42C214.157 482.1 212.217 482.44 209.991 482.44C207.764 482.44 205.824 482.1 204.171 481.42C202.531 480.727 201.251 479.76 200.331 478.52C199.424 477.28 198.971 475.827 198.971 474.16C198.971 473.04 199.251 471.967 199.811 470.94C200.384 469.913 201.117 469.04 202.011 468.32C202.904 467.6 203.837 467.147 204.811 466.96C203.477 466.4 202.384 465.593 201.531 464.54C200.677 463.473 200.251 462.147 200.251 460.56C200.251 458.88 200.677 457.453 201.531 456.28C202.384 455.107 203.544 454.213 205.011 453.6C206.491 452.987 208.151 452.68 209.991 452.68ZM209.991 465.4C211.751 465.4 213.177 464.967 214.271 464.1C215.377 463.233 215.931 462.027 215.931 460.48C215.931 458.92 215.377 457.693 214.271 456.8C213.164 455.893 211.737 455.44 209.991 455.44C208.244 455.44 206.817 455.893 205.711 456.8C204.604 457.707 204.051 458.933 204.051 460.48C204.051 462.027 204.604 463.233 205.711 464.1C206.817 464.967 208.244 465.4 209.991 465.4ZM209.991 479.44C212.137 479.44 213.851 478.96 215.131 478C216.411 477.04 217.051 475.753 217.051 474.14C217.051 472.553 216.411 471.247 215.131 470.22C213.851 469.18 212.137 468.66 209.991 468.66C207.857 468.66 206.151 469.18 204.871 470.22C203.604 471.247 202.971 472.553 202.971 474.14C202.971 475.753 203.604 477.04 204.871 478C206.151 478.96 207.857 479.44 209.991 479.44Z" fill="white"/>
<path d="M134.14 447.44C132.54 447.44 131.046 447.14 129.66 446.54C128.286 445.927 127.133 445.06 126.2 443.94C125.28 442.82 124.713 441.48 124.5 439.92H128.1C128.433 441.24 129.12 442.313 130.16 443.14C131.213 443.953 132.5 444.36 134.02 444.36C136.58 444.36 138.573 443.347 140 441.32C141.44 439.293 142.046 436.087 141.82 431.7C141.326 433.22 140.4 434.46 139.04 435.42C137.693 436.367 136.106 436.84 134.28 436.84C132.373 436.84 130.693 436.467 129.24 435.72C127.8 434.973 126.673 433.907 125.86 432.52C125.046 431.133 124.64 429.473 124.64 427.54C124.64 425.607 125.04 423.9 125.84 422.42C126.653 420.94 127.8 419.78 129.28 418.94C130.773 418.1 132.546 417.68 134.6 417.68C136.84 417.68 138.78 418.26 140.42 419.42C142.06 420.567 143.326 422.22 144.22 424.38C145.113 426.527 145.56 429.107 145.56 432.12C145.56 436.973 144.566 440.74 142.58 443.42C140.606 446.1 137.793 447.44 134.14 447.44ZM134.68 433.7C135.746 433.7 136.76 433.453 137.72 432.96C138.68 432.467 139.46 431.813 140.06 431C140.673 430.173 140.98 429.273 140.98 428.3C140.993 426.807 140.74 425.493 140.22 424.36C139.7 423.213 138.96 422.32 138 421.68C137.04 421.027 135.92 420.7 134.64 420.7C132.88 420.7 131.44 421.32 130.32 422.56C129.2 423.787 128.64 425.387 128.64 427.36C128.64 429.293 129.153 430.833 130.18 431.98C131.206 433.127 132.706 433.7 134.68 433.7Z" fill="white"/>
<path d="M60.4608 385L70.9208 356.08H75.1008L85.5608 385H81.7808L78.9408 377.08H67.1208L64.2208 385H60.4608ZM68.0608 373.68H77.9608L73.0408 359.74L68.0608 373.68Z" fill="white"/>
<path d="M31.902 309V280.08H41.202C44.722 280.08 47.382 280.727 49.182 282.02C50.9954 283.313 51.902 285.18 51.902 287.62C51.902 289.153 51.502 290.467 50.702 291.56C49.902 292.653 48.5154 293.553 46.542 294.26C48.822 294.753 50.402 295.633 51.282 296.9C52.1754 298.153 52.622 299.593 52.622 301.22C52.622 306.407 48.9154 309 41.502 309H31.902ZM35.602 292.8H41.902C42.902 292.8 43.8954 292.66 44.882 292.38C45.8687 292.1 46.6887 291.62 47.342 290.94C47.9954 290.26 48.322 289.307 48.322 288.08C48.322 286.4 47.6754 285.16 46.382 284.36C45.102 283.547 43.4354 283.14 41.382 283.14H35.602V292.8ZM35.602 305.92H41.462C43.8754 305.92 45.7087 305.527 46.962 304.74C48.2287 303.94 48.862 302.713 48.862 301.06C48.862 299.847 48.5487 298.867 47.922 298.12C47.3087 297.36 46.4754 296.807 45.422 296.46C44.3687 296.113 43.1954 295.94 41.902 295.94H35.602V305.92Z" fill="white"/>
<path d="M41.1905 197.68C43.2171 197.68 45.0171 198.107 46.5905 198.96C48.1771 199.8 49.4505 200.927 50.4105 202.34C51.3705 203.753 51.9371 205.307 52.1105 207H48.1705C47.8371 205.307 47.0771 203.867 45.8905 202.68C44.7171 201.493 43.1171 200.9 41.0905 200.9C38.4505 200.9 36.4371 201.833 35.0505 203.7C33.6771 205.553 32.9905 208.48 32.9905 212.48C32.9905 216.507 33.6771 219.467 35.0505 221.36C36.4371 223.24 38.4505 224.18 41.0905 224.18C42.4505 224.18 43.6171 223.893 44.5905 223.32C45.5638 222.733 46.3505 221.967 46.9505 221.02C47.5505 220.06 47.9571 219.02 48.1705 217.9H52.1105C51.9105 219.54 51.3838 221.087 50.5305 222.54C49.6905 223.98 48.4971 225.153 46.9505 226.06C45.4038 226.953 43.4838 227.4 41.1905 227.4C37.2838 227.4 34.2571 226.087 32.1105 223.46C29.9638 220.833 28.8905 217.16 28.8905 212.44C28.8905 207.733 29.9571 204.1 32.0905 201.54C34.2371 198.967 37.2705 197.68 41.1905 197.68Z" fill="white"/>
<path d="M61.9528 121.08C62.0595 121.08 62.4995 121.08 63.2728 121.08C64.0461 121.08 64.9328 121.087 65.9328 121.1C66.9461 121.1 67.8595 121.107 68.6728 121.12C73.9795 121.2 77.8128 122.453 80.1728 124.88C82.5328 127.293 83.7128 130.787 83.7128 135.36C83.7128 140.16 82.4528 143.8 79.9328 146.28C77.4261 148.76 73.5461 150 68.2928 150H61.9528V121.08ZM65.7528 124.26V146.82H68.2928C70.6795 146.82 72.7328 146.453 74.4528 145.72C76.1728 144.973 77.4928 143.767 78.4128 142.1C79.3461 140.433 79.8128 138.207 79.8128 135.42C79.8128 132.633 79.3595 130.427 78.4528 128.8C77.5595 127.173 76.2661 126.013 74.5728 125.32C72.8795 124.613 70.8395 124.26 68.4528 124.26H65.7528Z" fill="white"/>
<path d="M121.418 90V61.08H139.658L139.638 64.34H125.138V73.78H138.198V77.02H125.118V86.66L140.038 86.7V90H121.418Z" fill="white"/>
<path d="M204.445 31.08H222.465L222.445 34.32H208.245V43.88H221.005V47.08H208.245V60H204.445V31.08Z" fill="white"/>
<defs>
<filter id="filter0_i" x="196.5" y="196.5" width="115" height="119" filterUnits="userSpaceOnUse" color-interpolation-filters="sRGB">
<feFlood flood-opacity="0" result="BackgroundImageFix"/>
<feBlend mode="normal" in="SourceGraphic" in2="BackgroundImageFix" result="shape"/>
<feColorMatrix in="SourceAlpha" type="matrix" values="0 0 0 0 0 0 0 0 0 0 0 0 0 0 0 0 0 0 127 0" result="hardAlpha"/>
<feOffset dy="4"/>
<feGaussianBlur stdDeviation="2"/>
<feComposite in2="hardAlpha" operator="arithmetic" k2="-1" k3="1"/>
<feColorMatrix type="matrix" values="0 0 0 0 0 0 0 0 0 0 0 0 0 0 0 0 0 0 0.25 0"/>
<feBlend mode="normal" in2="shape" result="effect1_innerShadow"/>
</filter>
</defs>
</svg>
